<?xml version="1.0" encoding="UTF-8"?>
<svg width="18px" height="18px" viewBox="0 0 18 18" version="1.1" xmlns="http://www.w3.org/2000/svg" xmlns:xlink="http://www.w3.org/1999/xlink">
    <!-- Generator: Sketch 53.2 (72643) - https://sketchapp.com -->
    <title>Shape</title>
    <desc>Created with Sketch.</desc>
    <g id="Page-1" stroke="none" stroke-width="1" fill="none" fill-rule="evenodd">
        <g id="Mine" transform="translate(-333.000000, -56.000000)" fill="#FFFFFF" fill-rule="nonzero">
            <g id="Top-Bar">
                <g id="setting" transform="translate(333.000000, 56.000000)">
                    <path d="M17.1055953,7.49813201 L16.5476829,7.29638854 C16.0448465,7.12455265 15.6389094,6.74534886 15.431858,6.25404732 C15.2165586,5.76896406 15.2165586,5.21484665 15.431858,4.72976339 L15.6884977,4.19178081 C15.8919775,3.76151668 15.8024731,3.24906809 15.4653328,2.91407222 L14.8739456,2.32004981 C14.5404358,1.98140719 14.0302606,1.89150393 13.6019052,2.09589042 L13.0663093,2.35367372 C12.583378,2.56993247 12.0317188,2.56993247 11.5487875,2.35367372 C11.0596655,2.14569974 10.6821439,1.73795373 10.5110703,1.23287671 L10.3883296,0.739726031 C10.228599,0.295949321 9.80925004,0.000200775245 9.33945421,-7.07888159e-15 L8.51374379,-7.07888159e-15 C8.04394796,0.000200782644 7.62459897,0.295949327 7.46486842,0.739726031 L7.26401993,1.30012453 C7.09294634,1.80520156 6.7154248,2.21294757 6.2263028,2.42092155 C5.74337149,2.63718029 5.19171228,2.63718029 4.70878098,2.42092155 L4.17318502,2.16313824 C3.74482966,1.95875176 3.23465441,2.04865502 2.90114467,2.38729764 L2.30975749,2.98132005 C1.97261718,3.31631592 1.88311275,3.82876451 2.08659252,4.25902864 L2.34323224,4.79701121 C2.5585316,5.28209447 2.5585316,5.83621188 2.34323224,6.32129514 C2.13618088,6.81259668 1.73024374,7.19180047 1.22740736,7.36363637 L0.669494925,7.56537982 C0.276089125,7.73749357 0.0157955384,8.12095864 -6.37099343e-14,8.55168119 L-6.37099343e-14,9.38107099 C0.00188304584,9.85586014 0.301394205,10.2779423 0.747602671,10.4346202 L1.3055151,10.6363636 C1.80835148,10.8081995 2.21428863,11.1874033 2.42133998,11.6787049 C2.63663935,12.1637881 2.63663935,12.7179055 2.42133998,13.2029888 L2.16470025,13.7409714 C1.96122048,14.1712355 2.05072491,14.6836841 2.38786524,15.01868 L2.97925242,15.6127024 C3.31276216,15.951345 3.8229374,16.0412482 4.25129277,15.8368618 L4.78688872,15.5790785 C5.26982003,15.3628197 5.82147924,15.3628197 6.30441054,15.5790785 C6.79353254,15.7870524 7.17105409,16.1947984 7.34212768,16.6998755 L7.54297615,17.260274 C7.7027067,17.7040507 8.1220557,17.9997992 8.59185153,18 L9.41756195,18 C9.88735778,17.9997992 10.3067068,17.7040507 10.4664373,17.260274 L10.6672858,16.7110834 C10.8421141,16.2045338 11.2236263,15.7968611 11.7161612,15.5902864 C12.1921269,15.3778523 12.7354008,15.3778523 13.2113665,15.5902864 L13.7581207,15.8480697 C14.1864761,16.0524562 14.6966513,15.962553 15.0301611,15.6239103 L15.6215482,15.0298879 C15.9586886,14.6948921 16.048193,14.1824435 15.8447132,13.7521793 L15.5880735,13.2141968 C15.3760759,12.7323144 15.3760759,12.1830032 15.5880735,11.7011208 C15.7951249,11.2098193 16.201062,10.8306155 16.7038984,10.6587796 L17.2618108,10.4570361 C17.6545948,10.2486021 17.8868738,9.8259955 17.853198,9.38107099 L17.853198,8.55168119 C17.8513149,8.07689205 17.5518038,7.65480991 17.1055953,7.49813201 L17.1055953,7.49813201 Z M12.2071241,9.62764632 C11.8779062,11.2814015 10.3799522,12.4343389 8.70457278,12.3234717 C7.02919332,12.2126046 5.69477157,10.8722366 5.58439627,9.18939166 C5.47402097,7.50654668 6.62184361,6.00191782 8.26826232,5.67123288 C9.36573002,5.45080532 10.5002629,5.79586881 11.291652,6.59078439 C12.0830411,7.38569996 12.4265738,8.52528829 12.2071241,9.62764632 L12.2071241,9.62764632 Z" id="Shape"></path>
                </g>
            </g>
        </g>
    </g>
</svg>