<?xml version="1.0" encoding="UTF-8"?>
<svg width="26px" height="27px" viewBox="0 0 26 27" version="1.1" xmlns="http://www.w3.org/2000/svg" xmlns:xlink="http://www.w3.org/1999/xlink">
    <!-- Generator: Sketch 53.2 (72643) - https://sketchapp.com -->
    <title>Shape</title>
    <desc>Created with Sketch.</desc>
    <g id="Page-1" stroke="none" stroke-width="1" fill="none" fill-rule="evenodd">
        <g id="Home" transform="translate(-305.000000, -752.000000)" fill="#71768C" fill-rule="nonzero" stroke="#71768C" stroke-width="0.5">
            <g id="Navigation-bars" transform="translate(0.000000, 733.000000)">
                <g id="Mine" transform="translate(305.000000, 19.000000)">
                    <path d="M23.4568198,26 C23.4568198,23.0934625 22.1909774,20.3135861 19.9838116,18.3720057 C19.7067505,18.1286975 19.4175414,17.9000711 19.1173351,17.6870361 C18.4611949,17.2226123 17.6340541,17.5792631 16.33871,18.1986801 C15.349856,18.6719924 14.2287905,19.2080796 13.01922,19.2080796 C11.8080104,19.2080796 10.685306,18.6758811 9.69372033,18.205902 C8.39018128,17.5881516 7.55757715,17.2337229 6.89706638,17.7037021 C6.62171698,17.8998044 6.35292351,18.1114617 6.09833457,18.3331185 C3.863306,20.276921 2.58162009,23.0712413 2.58162009,26 L1,26 C1,24.2700769 1.37041051,22.6012622 2.10030495,21.041887 C2.8064596,19.5351084 3.8182062,18.1973419 5.06905229,17.1165059 C5.36133786,16.8609617 5.67110595,16.6176392 5.98797628,16.3915382 C6.6572283,15.9154482 7.41662446,15.7743434 8.30713939,15.9615573 C8.99715187,16.1059953 9.69208133,16.4348696 10.364065,16.7537443 C11.246385,17.172059 12.1592994,17.6048176 13.01922,17.6048176 C13.8742236,17.6048176 14.7844063,17.1692813 15.6639947,16.7487445 C16.332154,16.4293143 17.0227129,16.0987734 17.71054,15.9515577 C18.597777,15.7621217 19.3544415,15.8998933 20.0226009,16.3720946 C20.3667876,16.6159726 20.7033258,16.8809609 21.0201961,17.1609484 C22.2563698,18.2414963 23.2551929,19.5743685 23.9517931,21.0729968 C24.6704652,22.6125032 25.0417275,24.2958565 25.0384615,26 L23.4568198,26 Z M13.0203126,15.5626861 C11.0256684,15.5626861 9.1501238,14.8093863 7.73786543,13.4416693 C6.31577317,12.0656193 5.53288489,10.232923 5.53288491,8.28134304 C5.53288491,6.33031865 6.3157732,4.49762231 7.73786543,3.12101685 C9.15012378,1.75329985 11.0256684,1 13.0203126,1 C15.0138641,1 16.8894088,1.75329985 18.3022134,3.12101685 C19.723213,4.49762234 20.5066476,6.33031865 20.5066476,8.28134304 C20.5066476,10.232923 19.723213,12.0656193 18.3022134,13.4416693 C16.8894088,14.8093863 15.0138641,15.5626861 13.0203126,15.5626861 Z M13.0203126,2.45104663 C9.68006214,2.45104663 6.96371843,5.06648594 6.96371841,8.28134304 C6.96371841,11.4967557 9.68006211,14.112195 13.0203126,14.112195 C16.3589241,14.112195 19.0758141,11.4967557 19.0758141,8.28134304 C19.0758141,5.06648591 16.3589241,2.45104661 13.0203126,2.45104663 Z" id="Shape"></path>
                </g>
            </g>
        </g>
    </g>
</svg>