<?xml version="1.0" encoding="UTF-8"?>
<svg width="30px" height="23px" viewBox="0 0 30 23" version="1.1" xmlns="http://www.w3.org/2000/svg" xmlns:xlink="http://www.w3.org/1999/xlink">
    <!-- Generator: Sketch 53.2 (72643) - https://sketchapp.com -->
    <title>Shape</title>
    <desc>Created with Sketch.</desc>
    <g id="Page-1" stroke="none" stroke-width="1" fill="none" fill-rule="evenodd">
        <g id="Writer" transform="translate(-59.000000, -132.000000)" fill="#DD4E43" fill-rule="nonzero">
            <g id="Writers-ranking" transform="translate(-9.000000, 93.000000)">
                <g id="The-first-three-writers-of-activity">
                    <g id="Charlene" transform="translate(41.000000, 39.000000)">
                        <g id="Crown-copy" transform="translate(27.000000, 0.000000)">
                            <path d="M15.056391,0 C15.5263158,0 15.9774436,0.0943073788 16.4097744,0.282922136 C16.8421053,0.471536894 17.2133459,0.730882185 17.5234962,1.06095801 C17.8336466,1.39103384 18.0827068,1.77297872 18.2706767,2.20679266 C18.4586466,2.64060661 18.5526316,3.10271276 18.5526316,3.59311113 C18.5526316,4.30984721 18.3693609,4.95113738 18.0028195,5.51698166 C17.6362782,6.08282593 17.1616541,6.51663987 16.5789474,6.81842348 C16.3721805,7.40312923 16.268797,8.00669646 16.268797,8.62912516 C16.268797,9.32699976 16.3956767,10.020159 16.6494361,10.7086029 C16.9031955,11.3970467 17.2509398,12.0194754 17.6926692,12.575889 C18.1343985,13.1323025 18.6513158,13.5849779 19.2434211,13.9339152 C19.8355263,14.2828525 20.4699248,14.4573212 21.1466165,14.4573212 C21.7293233,14.4573212 22.2791353,14.3158601 22.7960526,14.032938 C23.3129699,13.7500158 23.7828947,13.3869324 24.2058271,12.9436877 C24.6287594,12.5004431 24.9859023,12.0006139 25.2772556,11.4442004 C25.568609,10.8877869 25.7800752,10.3360887 25.9116541,9.78910592 C25.4041353,9.54390673 24.9906015,9.17610795 24.6710526,8.68570958 C24.3515038,8.19531121 24.1917293,7.64832842 24.1917293,7.04476119 C24.1917293,6.62980873 24.2669173,6.24314847 24.4172932,5.88478043 C24.5676692,5.5264124 24.7744361,5.21519805 25.037594,4.95113738 C25.3007519,4.68707672 25.6109023,4.47488512 25.9680451,4.31456258 C26.325188,4.15424003 26.7011278,4.07407876 27.0958647,4.07407876 C27.4906015,4.07407876 27.8665414,4.15424003 28.2236842,4.31456258 C28.5808271,4.47488512 28.8909774,4.68707672 29.1541353,4.95113738 C29.4172932,5.21519805 29.6240602,5.5264124 29.7744361,5.88478043 C29.924812,6.24314847 30,6.62980873 30,7.04476119 C30,7.64832842 29.8449248,8.19059585 29.5347744,8.67156348 C29.2246241,9.15253111 28.825188,9.51561452 28.3364662,9.7608137 C28.2424812,10.7038875 28.1015038,11.6658228 27.9135338,12.6466195 C27.7255639,13.6274162 27.4906015,14.6034976 27.2086466,15.5748636 C26.9266917,16.5462296 26.5977444,17.484588 26.2218045,18.3899389 C25.8458647,19.2952897 25.4323308,20.1251946 24.981203,20.8796537 C23.4210526,21.4643594 21.8045113,21.9123195 20.1315789,22.2235338 C18.4586466,22.5347482 16.7387218,22.6903553 14.9718045,22.6903553 C13.2048872,22.6903553 11.4896617,22.5347482 9.82612782,22.2235338 C8.16259398,21.9123195 6.54135338,21.4643594 4.96240602,20.8796537 C4.5112782,20.1251946 4.09774436,19.2952897 3.72180451,18.3899389 C3.34586466,17.484588 3.01691729,16.5462296 2.73496241,15.5748636 C2.45300752,14.6034976 2.21334586,13.6274162 2.01597744,12.6466195 C1.81860902,11.6658228 1.68233083,10.7038875 1.60714286,9.7608137 C1.11842105,9.51561452 0.728383459,9.15253111 0.437030075,8.67156348 C0.145676692,8.19059585 -6.52151683e-17,7.64832842 0,7.04476119 C0,6.62980873 0.0751879699,6.24314847 0.22556391,5.88478043 C0.37593985,5.5264124 0.578007519,5.21519805 0.831766917,4.95113738 C1.08552632,4.68707672 1.3862782,4.47488512 1.73402256,4.31456258 C2.08176692,4.15424003 2.45300752,4.07407876 2.84774436,4.07407876 C3.2424812,4.07407876 3.61842105,4.15424003 3.97556391,4.31456258 C4.33270677,4.47488512 4.64285714,4.68707672 4.90601504,4.95113738 C5.16917293,5.21519805 5.37593985,5.5264124 5.52631579,5.88478043 C5.67669173,6.24314847 5.7518797,6.62980873 5.7518797,7.04476119 C5.7518797,7.66718989 5.59210526,8.22360343 5.27255639,8.7140018 C4.95300752,9.20440017 4.53947368,9.56276821 4.03195489,9.78910592 C4.16353383,10.3549502 4.375,10.9160791 4.66635338,11.4724926 C4.95770677,12.0289062 5.31484962,12.5334506 5.73778195,12.9861261 C6.16071429,13.4388015 6.6306391,13.8066003 7.14755639,14.0895224 C7.66447368,14.3724445 8.21428571,14.5139056 8.79699248,14.5139056 C9.47368421,14.5139056 10.1080827,14.3394369 10.700188,13.9904996 C11.2922932,13.6415623 11.8139098,13.1888869 12.2650376,12.6324734 C12.7161654,12.0760599 13.068609,11.4489158 13.3223684,10.7510412 C13.5761278,10.0531666 13.7030075,9.35529197 13.7030075,8.65741737 C13.7030075,7.99726572 13.5714286,7.35597554 13.3082707,6.73354684 C12.7819549,6.41290176 12.3543233,5.97437244 12.0253759,5.41795891 C11.6964286,4.86154538 11.5319549,4.25326278 11.5319549,3.59311113 C11.5319549,3.10271276 11.6259398,2.64060661 11.8139098,2.20679266 C12.0018797,1.77297872 12.2556391,1.39103384 12.575188,1.06095801 C12.8947368,0.730882185 13.2659774,0.471536894 13.6889098,0.282922136 C14.1118421,0.0943073788 14.5676692,2.74843336e-15 15.056391,0 Z" id="Shape"></path>
                        </g>
                    </g>
                </g>
            </g>
        </g>
    </g>
</svg>