<?xml version="1.0" encoding="UTF-8"?>
<svg width="11px" height="12px" viewBox="0 0 11 12" version="1.1" xmlns="http://www.w3.org/2000/svg" xmlns:xlink="http://www.w3.org/1999/xlink">
    <!-- Generator: Sketch 53.2 (72643) - https://sketchapp.com -->
    <title>Shape</title>
    <desc>Created with Sketch.</desc>
    <g id="Page-1" stroke="none" stroke-width="1" fill="none" fill-rule="evenodd">
        <g id="Mine" transform="translate(-274.000000, -200.000000)" fill="#71768C" fill-rule="nonzero">
            <g id="Avatar-information" transform="translate(24.000000, 101.000000)">
                <g id="share" transform="translate(235.000000, 88.000000)">
                    <g id="Group-2" transform="translate(15.000000, 7.000000)">
                        <g id="Share-" transform="translate(0.000000, 4.000000)">
                            <path d="M8.49518141,4.47027777 C7.84438775,4.47027777 7.263322,4.1916111 6.85657596,3.75038888 L4.36961451,5.16694444 C4.42772109,5.37594443 4.47420635,5.58494444 4.47420635,5.80555556 C4.47420635,6.1655 4.38123583,6.50222222 4.23015874,6.81572222 L6.62414967,8.18583333 C7.01927438,7.57044444 7.7165533,7.15244444 8.50680272,7.15244445 C9.73866213,7.15244445 10.7380952,8.151 10.7380952,9.38177778 C10.7380952,10.6125556 9.73866213,11.6111111 8.50680272,11.6111111 C7.27494331,11.6111111 6.27551021,10.6125556 6.27551021,9.38177778 C6.27551021,9.3005 6.28713152,9.21922222 6.29875283,9.13794444 L3.57936508,7.59366667 C3.21910432,7.87233334 2.7542517,8.04650001 2.24291384,8.0465 C0.999433116,8.0465 0,7.04794444 0,5.80555556 C0,4.57477778 0.999433104,3.57622222 2.23129252,3.57622222 C2.88208617,3.57622222 3.46315193,3.8548889 3.86989796,4.2961111 L6.35685941,2.87955555 C6.29875283,2.67055555 6.25226757,2.46155555 6.25226758,2.24094444 C6.25226758,1.01016666 7.263322,0 8.49518141,0 C9.72704082,0 10.7264739,1.01016666 10.7264739,2.24094444 C10.7264739,3.47172222 9.72704082,4.47027777 8.49518141,4.47027777 Z" id="Shape"></path>
                        </g>
                    </g>
                </g>
            </g>
        </g>
    </g>
</svg>