<?xml version="1.0" encoding="UTF-8"?>
<svg width="16px" height="16px" viewBox="0 0 16 16" version="1.1" xmlns="http://www.w3.org/2000/svg" xmlns:xlink="http://www.w3.org/1999/xlink">
    <!-- Generator: Sketch 53.2 (72643) - https://sketchapp.com -->
    <title>Search icon</title>
    <desc>Created with Sketch.</desc>
    <g id="Page-1" stroke="none" stroke-width="1" fill="none" fill-rule="evenodd">
        <g id="Home" transform="translate(-40.000000, -160.000000)" fill="#9DA3B4" fill-rule="nonzero">
            <g id="search-bar" transform="translate(24.000000, 144.000000)">
                <g id="Search-icon" transform="translate(16.000000, 16.000000)">
                    <path d="M4,5 C4,5.55228183 4.44771817,6 5,6 C5.55228183,6 6,5.55228183 6,5 C6,4.44771817 5.55228183,4 5,4 C4.44771817,4 4,4.44771817 4,5 Z" id="Shape"></path>
                    <path d="M15.7756421,14.6925604 L12.4969344,11.4140447 C13.4972989,10.1719933 14.0410517,8.6382771 14.0410517,7.0207363 C14.0410517,5.14545973 13.3107674,3.38239839 11.9847151,2.05634773 C10.6586627,0.730272134 8.8956822,0 7.02051336,0 C5.14534453,0 3.382364,0.730297082 2.05628672,2.05634773 C0.730259324,3.38242334 0,5.14543479 0,7.02068641 C0,8.89596298 0.730309219,10.6588746 2.05631166,11.9847008 C2.9475314,12.8759112 4.0607827,13.511207 5.27569452,13.821882 C5.84726364,13.9680263 6.43380119,14.0410235 7.02038863,14.0410235 C7.6435988,14.0410235 8.26680897,13.958596 8.87125872,13.7938158 C9.2793727,13.6826483 9.52003995,13.2616292 9.40887448,12.853533 C9.29763417,12.4454368 8.87662241,12.2046905 8.46860822,12.3159577 C6.57096181,12.8330509 4.52894499,12.2910847 3.13937665,10.901492 C2.10268882,9.8649856 1.53171843,8.48676909 1.53171843,7.02068641 C1.53171843,5.55460373 2.10266387,4.17618763 3.13942655,3.13945667 C5.27948652,0.999359153 8.7615901,0.999359153 10.9016501,3.13945667 C11.9383629,4.17618763 12.5093582,5.55462868 12.5093582,7.02071136 C12.5093582,8.48679404 11.9384127,9.86516024 10.901675,10.9017914 C10.6025561,11.2008657 10.6025311,11.6857762 10.9016002,11.9849003 C10.939121,12.0223969 10.9795358,12.0552033 11.0221708,12.0832945 C11.0502865,12.1259053 11.0830673,12.1663457 11.1205632,12.2038423 L14.6926021,15.7756943 C14.8421615,15.9252314 15.0381231,16 15.2341345,16 C15.430146,16 15.6261575,15.9252065 15.775692,15.7756693 C16.074786,15.4765701 16.074761,14.9916097 15.775667,14.6925604 L15.7756421,14.6925604 Z" id="Shape"></path>
                </g>
            </g>
        </g>
    </g>
</svg>