<?xml version="1.0" encoding="UTF-8"?>
<svg width="10px" height="10px" viewBox="0 0 10 10" version="1.1" xmlns="http://www.w3.org/2000/svg" xmlns:xlink="http://www.w3.org/1999/xlink">
    <!-- Generator: Sketch 53.2 (72643) - https://sketchapp.com -->
    <title>Shape</title>
    <desc>Created with Sketch.</desc>
    <g id="Page-1" stroke="none" stroke-width="1" fill="none" fill-rule="evenodd">
        <g id="Book-details" transform="translate(-322.000000, -793.000000)" fill="#71768C" fill-rule="nonzero">
            <g id="Book-information" transform="translate(24.000000, 104.000000)">
                <g id="comment" transform="translate(0.000000, 555.000000)">
                    <g id="comment-1" transform="translate(0.000000, 51.000000)">
                        <g id="information" transform="translate(43.000000, 80.000000)">
                            <g id="comment" transform="translate(255.000000, 0.000000)">
                                <g transform="translate(0.000000, 3.000000)" id="Shape">
                                    <path d="M8.48866667,7.63714523 L6.78866666,7.63714523 C6.19066666,8.22595159 5.34633334,9.17617703 5.33733333,9.18551258 C5.24233333,9.28453607 5.123,9.33554817 5,9.33554817 C4.877,9.33554817 4.75733334,9.28453607 4.672,9.19551495 C4.672,9.19551495 3.58066667,8.07391552 3.16233334,7.63714523 L1.51066666,7.63714523 C0.692000003,7.63714523 0,6.90830565 0,6.04510085 L0,1.51802681 C0,0.68082819 0.665666668,0 1.48433333,0 L8.51566667,0 C9.33433333,0 10,0.68082819 10,1.51802681 L10,6.04443403 C10,6.90763882 9.308,7.63714523 8.48866667,7.63714523 Z M9.37566666,1.51802681 C9.37566666,1.02390959 8.99000001,0.622481014 8.51633334,0.622481014 L1.48433333,0.622481014 C1.01066666,0.622481014 0.625000004,1.024243 0.625000004,1.51802681 L0.625000004,6.04443403 C0.625000004,6.56088989 1.03933333,7.01466422 1.51066666,7.01466422 L3.432,7.01466422 L3.52433333,7.11235406 C3.775,7.37808377 4.663,8.29230066 4.995,8.63271476 C5.26633333,8.33097651 5.95266666,7.57613075 6.44433334,7.10168486 L6.53566667,7.01399739 L8.48933334,7.01399739 C8.96133334,7.01399739 9.37566666,6.56022307 9.37566666,6.04376721 L9.37566666,1.51802681 Z M7.34366667,4.53640959 C7.02,4.53640959 6.75766666,4.26634551 6.75766666,3.93259967 C6.75766666,3.59918723 7.02,3.32912316 7.34366667,3.32912316 C7.66766666,3.32912316 7.93,3.59918723 7.92933334,3.93259967 C7.92933334,4.26634551 7.66766666,4.53640959 7.34366667,4.53640959 Z M5,4.53640959 C4.677,4.53640959 4.41433334,4.26634551 4.41433334,3.93259967 C4.41433334,3.59918723 4.67633333,3.32912316 5,3.32912316 C5.32366667,3.32912316 5.58566667,3.59918723 5.58566667,3.93259967 C5.58566667,4.26634551 5.323,4.53640959 5,4.53640959 Z M2.65633333,4.53640959 C2.333,4.53640959 2.07066666,4.26634551 2.07066666,3.93259967 C2.07066666,3.59918723 2.33233334,3.32912316 2.65633333,3.32912316 C2.98,3.32912316 3.242,3.59918723 3.242,3.93259967 C3.242,4.26634551 2.97933334,4.53640959 2.65633333,4.53640959 Z"></path>
                                </g>
                            </g>
                        </g>
                    </g>
                </g>
            </g>
        </g>
    </g>
</svg>