<?xml version="1.0" encoding="UTF-8"?>
<svg width="17px" height="18px" viewBox="0 0 17 18" version="1.1" xmlns="http://www.w3.org/2000/svg" xmlns:xlink="http://www.w3.org/1999/xlink">
    <!-- Generator: Sketch 53.2 (72643) - https://sketchapp.com -->
    <title>Shape</title>
    <desc>Created with Sketch.</desc>
    <g id="Page-1" stroke="none" stroke-width="1" fill="none" fill-rule="evenodd">
        <g id="Book-details" transform="translate(-334.000000, -662.000000)" fill="#FFFFFF" fill-rule="nonzero" stroke="#FFFFFF" stroke-width="0.3">
            <g id="Book-information" transform="translate(24.000000, 104.000000)">
                <g id="comment" transform="translate(0.000000, 555.000000)">
                    <g id="record" transform="translate(310.000000, 3.000000)">
                        <path d="M15.5197937,7.01406673 L15.5197937,7.01406673 L15.5197937,3.39419891 C15.5197937,2.0751946 14.4317171,1 13.0895067,1 L3.43028701,1 C2.09134443,1 1,2.07641258 1,3.40423477 L1,15.376253 C1,16.705266 2.08739043,17.7804878 3.42875447,17.7804878 L5.8012455,17.7804878 L5.8012455,16.5818815 L3.42875447,16.5818815 C2.75494774,16.5818815 2.20998281,16.0426029 2.20998281,15.376253 L2.20998281,3.40423477 C2.20998281,2.74010701 2.75785964,2.19860627 3.43028701,2.19860627 L13.0895067,2.19860627 C13.7635495,2.19860627 14.3098109,2.73726456 14.3098109,3.39419891 L14.3098109,7.01406673 L15.5197937,7.01406673 Z M13.5776518,9.02381908 L13.5776518,9.02381908 L15.2888258,9.02381908 L8.3682012,15.8793744 L7.51261415,15.0318318 L8.71389851,15.1752953 L8.57886454,16.2848342 C8.552557,16.5009963 8.59641392,16.5442771 8.81448018,16.5182345 L9.93455026,16.3844701 L10.0793753,17.5744597 L9.22378825,16.7269171 L16.1444129,9.87136171 L16.1444129,11.566447 L13.5776518,9.02381908 Z M14.4332388,8.17627646 L17,10.7189043 L10.0793753,17.5744597 L8.95930523,17.7082241 C7.96599,17.8268507 7.25689766,17.1329876 7.37758019,16.1413707 L7.51261415,15.0318318 L14.4332388,8.17627646 L14.4332388,8.17627646 Z M5.23493982,5.79442509 L11.2848538,5.79442509 C11.6189814,5.79442509 11.8898452,5.52610793 11.8898452,5.19512195 C11.8898452,4.86413597 11.6189814,4.59581882 11.2848538,4.59581882 L5.23493982,4.59581882 C4.90081229,4.59581882 4.62994842,4.86413597 4.62994842,5.19512195 C4.62994842,5.52610793 4.90081229,5.79442509 5.23493982,5.79442509 L5.23493982,5.79442509 Z M5.23493982,9.3902439 L10.074871,9.3902439 C10.4089986,9.3902439 10.6798624,9.12192675 10.6798624,8.79094077 C10.6798624,8.45995478 10.4089986,8.19163763 10.074871,8.19163763 L5.23493982,8.19163763 C4.90081229,8.19163763 4.62994842,8.45995478 4.62994842,8.79094077 C4.62994842,9.12192675 4.90081229,9.3902439 5.23493982,9.3902439 L5.23493982,9.3902439 Z M5.23493982,12.9860627 L6.44492262,12.9860627 C6.77905015,12.9860627 7.04991403,12.7177456 7.04991403,12.3867596 C7.04991403,12.0557736 6.77905015,11.7874564 6.44492262,11.7874564 L5.23493982,11.7874564 C4.90081229,11.7874564 4.62994842,12.0557736 4.62994842,12.3867596 C4.62994842,12.7177456 4.90081229,12.9860627 5.23493982,12.9860627 L5.23493982,12.9860627 Z" id="Shape"></path>
                    </g>
                </g>
            </g>
        </g>
    </g>
</svg>