<?xml version="1.0" encoding="UTF-8"?>
<svg width="27px" height="25px" viewBox="0 0 27 25" version="1.1" xmlns="http://www.w3.org/2000/svg" xmlns:xlink="http://www.w3.org/1999/xlink">
    <!-- Generator: Sketch 53.2 (72643) - https://sketchapp.com -->
    <title>形状</title>
    <desc>Created with Sketch.</desc>
    <g id="Page-1" stroke="none" stroke-width="1" fill="none" fill-rule="evenodd">
        <g id="Fine-1" transform="translate(-35.000000, -752.000000)" fill="#71768C" fill-rule="nonzero">
            <g id="home" transform="translate(35.000000, 752.000000)">
                <path d="M6.075,25 C4.3875,25 3.0375,23.6666667 3.0375,22 L3.0375,13.3333333 L2.025,14.3333333 C1.85625,14.5 1.51875,14.6666667 1.18125,14.6666667 C0.84375,14.6666667 0.50625,14.5 0.3375,14.3333333 C0.16875,14 0,13.6666667 0,13.3333333 C0,13.1666667 0.16875,12.8333333 0.3375,12.5 L12.65625,0.333333333 C12.825,0.166666667 13.1625,0 13.5,0 C13.8375,0 14.175,0.166666667 14.34375,0.333333333 L26.6625,12.5 C26.83125,12.8333333 27,13.1666667 27,13.3333333 C27,13.6666667 26.83125,14 26.6625,14.1666667 C26.49375,14.3333333 26.15625,14.5 25.81875,14.5 C25.48125,14.5 25.14375,14.3333333 24.975,14.1666667 L13.5,3 L5.56875,10.8333333 L5.56875,21.8333333 C5.56875,22.1666667 5.90625,22.5 6.24375,22.5 L9.28125,22.5 L9.28125,17.6666667 C9.28125,17 9.7875,16.5 10.4625,16.5 L16.5375,16.5 C17.2125,16.5 17.71875,17 17.71875,17.6666667 C17.71875,18.3333333 17.2125,18.8333333 16.5375,18.8333333 L11.64375,18.8333333 L11.64375,23.6666667 C11.64375,24.3333333 11.1375,24.8333333 10.4625,24.8333333 L6.075,24.8333333 L6.075,25 Z M16.5375,25 C15.8625,25 15.35625,24.5 15.35625,23.8333333 C15.35625,23.1666667 15.8625,22.6666667 16.5375,22.6666667 L20.75625,22.6666667 C21.09375,22.6666667 21.43125,22.3333333 21.43125,22 L21.43125,15.3333333 C21.43125,14.6666667 21.9375,14.1666667 22.6125,14.1666667 C23.2875,14.1666667 23.79375,14.6666667 23.79375,15.3333333 L23.79375,22 C23.79375,23.6666667 22.44375,25 20.75625,25 L16.5375,25 Z" id="形状"></path>
            </g>
        </g>
    </g>
</svg>