<?xml version="1.0" encoding="UTF-8"?>
<svg width="18px" height="18px" viewBox="0 0 18 18" version="1.1" xmlns="http://www.w3.org/2000/svg" xmlns:xlink="http://www.w3.org/1999/xlink">
    <!-- Generator: Sketch 53.2 (72643) - https://sketchapp.com -->
    <title>Shape</title>
    <desc>Created with Sketch.</desc>
    <g id="Page-1" stroke="none" stroke-width="1" fill="none" fill-rule="evenodd">
        <g id="Search-for" transform="translate(-333.000000, -419.000000)" fill="#71768C" fill-rule="nonzero">
            <g id="content" transform="translate(24.000000, 137.000000)">
                <g id="History" transform="translate(0.000000, 279.000000)">
                    <g id="delete" transform="translate(309.000000, 3.000000)">
                        <path d="M17.3565,3.21219694 L14.1435,3.21219694 L14.1435,1.92551862 C14.1435,0.863784053 13.284,0 12.2265,0 L5.78700001,0 C4.725,0 3.85650001,0.863784053 3.85650001,1.92551862 L3.85650001,3.21219694 L0.643499995,3.21219694 C0.288,3.21219694 0,3.50012496 0,3.85553612 C0,4.21094728 0.288,4.49887528 0.643499995,4.49887528 L17.3565,4.49887528 C17.712,4.49887528 18,4.21094726 18,3.85553612 C18,3.50012498 17.712,3.21219696 17.3565,3.21219694 Z M14.787,5.78555362 L3.21299999,5.78555362 C3.04199999,5.78555362 2.88,5.84853787 2.7585,5.97000749 C2.63700001,6.09147712 2.5695,6.24893776 2.5695,6.41989503 L2.5695,16.0699825 C2.5695,17.1317171 3.438,18 4.5,18 L13.5,18 C14.562,18 15.426,17.1362159 15.426,16.0699825 L15.426,6.42889278 C15.4305,6.07348164 15.1425,5.78555362 14.787,5.78555362 Z M7.71299999,14.7833042 C7.71299999,15.1387153 7.42499999,15.4221445 7.0695,15.4221445 C6.714,15.4221445 6.426,15.1387153 6.426,14.7833042 L6.426,7.71107222 C6.426,7.35566108 6.714,7.06773306 7.0695,7.06773306 C7.42499999,7.06773306 7.71299999,7.35566108 7.71299999,7.71107222 L7.71299999,14.7833042 Z M11.5695,14.7833042 C11.5695,15.1387153 11.2815,15.4221445 10.926,15.4221445 C10.5705,15.4221445 10.2825,15.1387153 10.2825,14.7833042 L10.2825,7.71107222 C10.2825,7.35566108 10.5705,7.06773306 10.926,7.06773306 C11.2815,7.06773306 11.5695,7.35566108 11.5695,7.71107222 L11.5695,14.7833042 Z" id="Shape"></path>
                    </g>
                </g>
            </g>
        </g>
    </g>
</svg>