<?xml version="1.0" encoding="UTF-8"?>
<svg width="22px" height="25px" viewBox="0 0 22 25" version="1.1" xmlns="http://www.w3.org/2000/svg" xmlns:xlink="http://www.w3.org/1999/xlink">
    <!-- Generator: Sketch 53.2 (72643) - https://sketchapp.com -->
    <title>Shape</title>
    <desc>Created with Sketch.</desc>
    <g id="Page-1" stroke="none" stroke-width="1" fill="none" fill-rule="evenodd">
        <g id="Home" transform="translate(-221.000000, -753.000000)" fill="#71768C" fill-rule="nonzero">
            <g id="Navigation-bars" transform="translate(0.000000, 733.000000)">
                <g id="Library" transform="translate(221.761341, 20.000000)">
                    <path d="M19.8569953,22.9971653 L5.19895663,22.9971653 C3.462868,22.9971653 2.04556225,21.6055725 2.00298668,19.8787664 C2.00508875,19.852362 2.00645679,19.8257572 2.00645679,19.7987852 L2.00645679,19.6295429 C2.094711,17.9443297 3.49286445,16.6004051 5.19895663,16.6004051 L15.6528254,16.6004051 C15.7063785,16.6004051 15.7589306,16.596099 15.8102148,16.5879874 L16.8925884,16.5879874 C19.076955,16.5879874 20.8540509,14.8956306 20.8540509,12.8154184 L20.8540509,3.77260239 C20.8540509,1.6923902 19.076955,3.26208676e-08 16.8925884,3.26208676e-08 L3.96593365,0 C1.78160045,0 0.00447110037,1.69239017 0.00447110037,3.77260236 L0.00447110037,19.5918222 C0.00176841324,19.6605205 0,19.7294526 0,19.7987852 C0,22.6667588 2.3322466,25 5.19895663,25 L19.8569953,25 C20.4098103,25 20.8579882,24.5516246 20.8579882,23.9985659 C20.8579882,23.4455073 20.4098103,22.9971653 19.8569953,22.9971653 Z M3.96593365,2.00286811 L16.8925884,2.00286811 C17.9730601,2.00286811 18.8520653,2.79677164 18.8520653,3.77260236 L18.8520653,12.8154183 C18.8520653,13.7912491 17.9730601,14.5851192 16.8925884,14.5851192 L10.3769592,14.5851192 C10.3234061,14.5851192 10.2708539,14.5894254 10.2195697,14.597537 L5.19895663,14.597537 C3.99649729,14.597537 2.88816464,15.0082251 2.00645679,15.6965441 L2.00645679,3.77260239 C2.00645679,2.79677167 2.88546196,2.00286811 3.96593365,2.00286811 Z" id="Shape"></path>
                    <path d="M19.8224852,19.8224852 C19.8224852,20.3943708 19.3723953,20.8579882 18.8171961,20.8579882 L5.14730098,20.8579882 C4.59210179,20.8579882 4.14201183,20.3943708 4.14201183,19.8224852 L4.14201183,19.8224852 C4.14201183,19.2505996 4.59210179,18.7869822 5.14730098,18.7869822 L18.8171626,18.7869822 C19.3723953,18.7869822 19.8224852,19.2505996 19.8224852,19.8224852 L19.8224852,19.8224852 Z" id="Shape"></path>
                </g>
            </g>
        </g>
    </g>
</svg>