<?xml version="1.0" encoding="UTF-8"?>
<svg width="60px" height="46px" viewBox="0 0 60 46" version="1.1" xmlns="http://www.w3.org/2000/svg" xmlns:xlink="http://www.w3.org/1999/xlink">
    <!-- Generator: Sketch 53.2 (72643) - https://sketchapp.com -->
    <title>Shape</title>
    <desc>Created with Sketch.</desc>
    <g id="Page-1" stroke="none" stroke-width="1" fill="none" fill-rule="evenodd">
        <g id="Writer" transform="translate(-158.000000, -104.000000)" fill="#FDAF01" fill-rule="nonzero">
            <g id="Writers-ranking" transform="translate(-9.000000, 93.000000)">
                <g id="The-first-three-writers-of-activity">
                    <g id="Amenda" transform="translate(147.000000, 11.000000)">
                        <g id="Crown" transform="translate(20.000000, 0.000000)">
                            <path d="M30.112782,0 C31.0526316,0 31.9548872,0.188614758 32.8195489,0.565844273 C33.6842105,0.943073788 34.4266917,1.46176437 35.0469925,2.12191602 C35.6672932,2.78206767 36.1654135,3.54595744 36.5413534,4.41358533 C36.9172932,5.28121321 37.1052632,6.20542552 37.1052632,7.18622226 C37.1052632,8.61969442 36.7387218,9.90227477 36.0056391,11.0339633 C35.2725564,12.1656519 34.3233083,13.0332797 33.1578947,13.636847 C32.7443609,14.8062585 32.537594,16.0133929 32.537594,17.2582503 C32.537594,18.6539995 32.7913534,20.040318 33.2988722,21.4172057 C33.806391,22.7940934 34.5018797,24.0389508 35.3853383,25.1517779 C36.268797,26.264605 37.3026316,27.1699558 38.4868421,27.8678304 C39.6710526,28.565705 40.9398496,28.9146423 42.2932331,28.9146423 C43.4586466,28.9146423 44.5582707,28.6317202 45.5921053,28.0658759 C46.6259398,27.5000316 47.5657895,26.7738648 48.4116541,25.8873755 C49.2575188,25.0008861 49.9718045,24.0012279 50.5545113,22.8884008 C51.137218,21.7755738 51.5601504,20.6721774 51.8233083,19.5782118 C50.8082707,19.0878135 49.981203,18.3522159 49.3421053,17.3714192 C48.7030075,16.3906224 48.3834586,15.2966568 48.3834586,14.0895224 C48.3834586,13.2596175 48.5338346,12.4862969 48.8345865,11.7695609 C49.1353383,11.0528248 49.5488722,10.4303961 50.075188,9.90227477 C50.6015038,9.37415345 51.2218045,8.94977024 51.9360902,8.62912516 C52.6503759,8.30848007 53.4022556,8.14815752 54.1917293,8.14815752 C54.981203,8.14815752 55.7330827,8.30848007 56.4473684,8.62912516 C57.1616541,8.94977024 57.7819549,9.37415345 58.3082707,9.90227477 C58.8345865,10.4303961 59.2481203,11.0528248 59.5488722,11.7695609 C59.8496241,12.4862969 60,13.2596175 60,14.0895224 C60,15.2966568 59.6898496,16.3811917 59.0695489,17.343127 C58.4492481,18.3050622 57.6503759,19.031229 56.6729323,19.5216274 C56.4849624,21.407775 56.2030075,23.3316455 55.8270677,25.293239 C55.4511278,27.2548325 54.981203,29.2069952 54.4172932,31.1497272 C53.8533835,33.0924592 53.1954887,34.969176 52.443609,36.7798777 C51.6917293,38.5905794 50.8646617,40.2503893 49.962406,41.7593073 C46.8421053,42.9287188 43.6090226,43.8246389 40.2631579,44.4470676 C36.9172932,45.0694963 33.4774436,45.3807107 29.943609,45.3807107 C26.4097744,45.3807107 22.9793233,45.0694963 19.6522556,44.4470676 C16.325188,43.8246389 13.0827068,42.9287188 9.92481203,41.7593073 C9.02255639,40.2503893 8.19548872,38.5905794 7.44360902,36.7798777 C6.69172932,34.969176 6.03383459,33.0924592 5.46992481,31.1497272 C4.90601504,29.2069952 4.42669173,27.2548325 4.03195489,25.293239 C3.63721805,23.3316455 3.36466165,21.407775 3.21428571,19.5216274 C2.23684211,19.031229 1.45676692,18.3050622 0.87406015,17.343127 C0.291353383,16.3811917 -1.30430337e-16,15.2966568 0,14.0895224 C0,13.2596175 0.15037594,12.4862969 0.45112782,11.7695609 C0.751879699,11.0528248 1.15601504,10.4303961 1.66353383,9.90227477 C2.17105263,9.37415345 2.77255639,8.94977024 3.46804511,8.62912516 C4.16353383,8.30848007 4.90601504,8.14815752 5.69548872,8.14815752 C6.48496241,8.14815752 7.23684211,8.30848007 7.95112782,8.62912516 C8.66541353,8.94977024 9.28571429,9.37415345 9.81203008,9.90227477 C10.3383459,10.4303961 10.7518797,11.0528248 11.0526316,11.7695609 C11.3533835,12.4862969 11.5037594,13.2596175 11.5037594,14.0895224 C11.5037594,15.3343798 11.1842105,16.4472069 10.5451128,17.4280036 C9.90601504,18.4088003 9.07894737,19.1255364 8.06390977,19.5782118 C8.32706767,20.7099004 8.75,21.8321582 9.33270677,22.9449853 C9.91541353,24.0578123 10.6296992,25.0669013 11.4755639,25.9722521 C12.3214286,26.8776029 13.2612782,27.6132005 14.2951128,28.1790448 C15.3289474,28.744889 16.4285714,29.0278112 17.593985,29.0278112 C18.9473684,29.0278112 20.2161654,28.6788739 21.4003759,27.9809993 C22.5845865,27.2831247 23.6278195,26.3777738 24.5300752,25.2649468 C25.4323308,24.1521197 26.137218,22.8978316 26.6447368,21.5020824 C27.1522556,20.1063332 27.406015,18.7105839 27.406015,17.3148347 C27.406015,15.9945314 27.1428571,14.7119511 26.6165414,13.4670937 C25.5639098,12.8258035 24.7086466,11.9487449 24.0507519,10.8359178 C23.3928571,9.72309075 23.0639098,8.50652556 23.0639098,7.18622226 C23.0639098,6.20542552 23.2518797,5.28121321 23.6278195,4.41358533 C24.0037594,3.54595744 24.5112782,2.78206767 25.1503759,2.12191602 C25.7894737,1.46176437 26.5319549,0.943073788 27.3778195,0.565844273 C28.2236842,0.188614758 29.1353383,5.49686672e-15 30.112782,0 Z" id="Shape"></path>
                        </g>
                    </g>
                </g>
            </g>
        </g>
    </g>
</svg>