<?xml version="1.0" encoding="UTF-8"?>
<svg width="26px" height="26px" viewBox="0 0 26 26" version="1.1" xmlns="http://www.w3.org/2000/svg" xmlns:xlink="http://www.w3.org/1999/xlink">
    <!-- Generator: Sketch 53.2 (72643) - https://sketchapp.com -->
    <title>Shape</title>
    <desc>Created with Sketch.</desc>
    <g id="Page-1" stroke="none" stroke-width="1" fill="none" fill-rule="evenodd">
        <g id="Home" transform="translate(-133.000000, -752.000000)" fill="#71768C" fill-rule="nonzero" stroke="#70768E" stroke-width="0.2">
            <g id="Navigation-bars" transform="translate(0.000000, 733.000000)">
                <g id="Find" transform="translate(132.380671, 19.000000)">
                    <path d="M23.9632077,6.56615932 C24.3785927,5.90778823 24.8219027,5.10041739 25.1220968,4.28265121 C25.5270099,3.17381572 25.3769128,2.15507308 24.724165,1.55560891 C24.0958517,0.983865609 23.1289472,0.914563379 22.1376083,1.36849292 C21.9037361,1.47591137 21.7117515,1.56600425 21.5162762,1.65956224 C21.1497601,1.83628289 20.999663,2.27288686 21.1776851,2.63672352 C21.3557072,3.00056019 21.7955266,3.14955996 22.1620427,2.97283928 C22.3435555,2.88621152 22.5285589,2.79958375 22.7519592,2.69563042 C23.1743254,2.5015842 23.5582947,2.47732841 23.7258449,2.63325841 C23.875942,2.76839773 23.9666984,3.15302504 23.7363168,3.78714035 C23.4221601,4.64995296 22.8078093,5.73453269 22.0573238,6.76020553 C19.4323702,10.3362 17.0692138,13.0701726 14.8282294,15.1180531 C14.8247388,15.1215182 14.8247388,15.1215182 14.8212482,15.1249834 C11.9205348,17.8416303 9.14897468,19.8444645 6.92195286,21.4557411 L6.71251506,21.6047408 C6.68459004,21.6255315 6.65666498,21.642857 6.62873996,21.6636477 C4.20973348,19.674674 2.66687508,16.6704229 2.66687508,13.3161954 C2.66687508,7.33541394 7.56771938,2.47039816 13.5925465,2.47039816 C15.1284236,2.47039816 16.6119413,2.77879304 18.0047026,3.39211767 C18.3747094,3.55497789 18.8110381,3.38865256 18.9750977,3.0178857 C19.1391573,2.65058392 18.9716071,2.21744506 18.5981097,2.05458486 C17.020345,1.35809756 15.3343708,1.00812135 13.5960371,1.00812135 C10.2834294,1.00812135 7.16978755,2.28674729 4.83106558,4.61183672 C2.48885294,6.93692618 1.20081056,10.0278051 1.20081056,13.3127303 C1.20081056,15.4160526 1.72789565,17.4362123 2.72272516,19.2276747 C2.2829058,19.8063482 1.6755362,20.7142073 1.22524495,21.8403683 C0.837785043,22.8036692 0.959957073,23.7253887 1.54638288,24.3075274 C1.79072697,24.5500851 2.25149012,24.8550149 3.00546614,24.8550149 C3.41736048,24.8550149 3.91652055,24.764922 4.51690886,24.5258294 C5.16267538,24.2694111 5.86778261,23.8986443 6.57987109,23.4585752 C8.62887079,24.8619451 11.0583492,25.6208044 13.6030183,25.6208044 C16.9156261,25.6208044 20.0292679,24.3421785 22.3679898,22.017089 C24.7102025,19.6919996 25.9982449,16.6011206 25.9982449,13.3161955 C25.9912637,10.9010131 25.2931377,8.57245856 23.9632077,6.56615932 L23.9632077,6.56615932 Z M3.96189876,23.1744361 C3.17999768,23.4862961 2.72970643,23.4239241 2.57960934,23.2749243 C2.42951226,23.1259245 2.43300289,22.7690181 2.5865906,22.3843908 C2.87631288,21.6601826 3.242829,21.0364626 3.56745759,20.5582773 C3.9444456,21.0711138 4.36681183,21.5596944 4.82757495,22.017089 C4.99163456,22.1799492 5.1626754,22.3393443 5.33720691,22.4952743 C4.85549997,22.7724832 4.38426496,23.0046456 3.96189876,23.1744361 L3.96189876,23.1744361 Z M13.5960371,24.1619927 C11.5051498,24.1619927 9.55039711,23.576389 7.88885732,22.5611115 C10.1333323,20.9394395 12.9048924,18.9262101 15.8300402,16.1887724 C18.0849871,14.1270314 20.4516341,11.4069193 23.055644,7.88290148 C24.0190578,9.52882917 24.5217085,11.3895937 24.5217085,13.3161954 C24.5217085,19.2969769 19.6208642,24.1619927 13.5960371,24.1619927 L13.5960371,24.1619927 Z M9.55039711,7.13790262 C9.55039711,6.59041508 9.77728804,6.04639266 10.1682386,5.66176535 C10.5591891,5.27367293 11.107218,5.04844072 11.6552469,5.04844072 C12.2067664,5.04844072 12.7547953,5.27367293 13.1422552,5.66176535 C13.5332058,6.04985777 13.7600967,6.5938802 13.7600967,7.13790262 C13.7600967,7.68539015 13.5332058,8.22941257 13.1422552,8.61403988 C12.7513047,9.00213231 12.2032758,9.22736451 11.6552469,9.22736451 C11.1037274,9.22736451 10.5556985,9.00213231 10.1682386,8.61403988 C9.77728807,8.22941257 9.55039711,7.68539015 9.55039711,7.13790262 L9.55039711,7.13790262 Z M6.44024592,13.832497 C6.44024592,13.5171719 6.56939922,13.2053119 6.79629017,12.9835448 C7.01969047,12.7617777 7.33384717,12.6301035 7.65149449,12.6301035 C7.96914182,12.6301035 8.28329849,12.7583126 8.50669881,12.9835448 C8.73009911,13.2053119 8.86274306,13.5171719 8.86274306,13.832497 C8.86274306,14.1478221 8.73358977,14.4596821 8.50669881,14.6814492 C8.28329852,14.9032163 7.96914182,15.0348905 7.65149449,15.0348905 C7.33384717,15.0348905 7.0196905,14.9066814 6.79629017,14.6814492 C6.57288988,14.4596821 6.44024592,14.1478221 6.44024592,13.832497 L6.44024592,13.832497 Z M16.294294,19.6019067 C16.294294,19.3974652 16.3780691,19.1964887 16.5246755,19.0509541 C16.671282,18.9088845 16.8737385,18.8222567 17.0796857,18.8222567 C17.2856329,18.8222567 17.4880894,18.9054194 17.6346958,19.0509541 C17.7778117,19.1930236 17.8650774,19.3974652 17.8650774,19.6019067 C17.8650774,19.8063483 17.7813023,20.0073247 17.6346958,20.1493942 C17.49158,20.2949289 17.2856329,20.3780916 17.0796857,20.3780916 C16.8737385,20.3780916 16.671282,20.2949289 16.5246755,20.1493942 C16.3815597,20.0073247 16.294294,19.8063483 16.294294,19.6019067 L16.294294,19.6019067 Z" id="Shape"></path>
                </g>
            </g>
        </g>
    </g>
</svg>