<?xml version="1.0" encoding="UTF-8"?>
<svg width="26px" height="27px" viewBox="0 0 26 27" version="1.1" xmlns="http://www.w3.org/2000/svg" xmlns:xlink="http://www.w3.org/1999/xlink">
    <!-- Generator: Sketch 53.2 (72643) - https://sketchapp.com -->
    <title>Shape</title>
    <desc>Created with Sketch.</desc>
    <g id="Page-1" stroke="none" stroke-width="1" fill="none" fill-rule="evenodd">
        <g id="Mine" transform="translate(-305.000000, -897.000000)" fill="#FB6794" fill-rule="nonzero" stroke="#FF5894" stroke-width="0.5">
            <g id="Navigation-bars-Copy-3" transform="translate(0.000000, 878.000000)">
                <g id="Mine" transform="translate(306.000000, 20.000000)">
                    <path d="M22.4568198,25 C22.4568198,22.0934625 21.1909774,19.3135861 18.9838116,17.3720057 C18.7067505,17.1286975 18.4175414,16.9000711 18.1173351,16.6870361 C17.4611949,16.2226123 16.6340541,16.5792631 15.33871,17.1986801 C14.349856,17.6719924 13.2287905,18.2080796 12.01922,18.2080796 C10.8080104,18.2080796 9.68530598,17.6758811 8.69372033,17.205902 C7.39018128,16.5881516 6.55757715,16.2337229 5.89706638,16.7037021 C5.62171698,16.8998044 5.35292351,17.1114617 5.09833457,17.3331185 C2.863306,19.276921 1.58162009,22.0712413 1.58162009,25 L0,25 C0,23.2700769 0.370410506,21.6012622 1.10030495,20.041887 C1.8064596,18.5351084 2.8182062,17.1973419 4.06905229,16.1165059 C4.36133786,15.8609617 4.67110595,15.6176392 4.98797628,15.3915382 C5.6572283,14.9154482 6.41662446,14.7743434 7.30713939,14.9615573 C7.99715187,15.1059953 8.69208133,15.4348696 9.36406501,15.7537443 C10.246385,16.172059 11.1592994,16.6048176 12.01922,16.6048176 C12.8742236,16.6048176 13.7844063,16.1692813 14.6639947,15.7487445 C15.332154,15.4293143 16.0227129,15.0987734 16.71054,14.9515577 C17.597777,14.7621217 18.3544415,14.8998933 19.0226009,15.3720946 C19.3667876,15.6159726 19.7033258,15.8809609 20.0201961,16.1609484 C21.2563698,17.2414963 22.2551929,18.5743685 22.9517931,20.0729968 C23.6704652,21.6125032 24.0417275,23.2958565 24.0384615,25 L22.4568198,25 Z M12.0203126,14.5626861 C10.0256684,14.5626861 8.1501238,13.8093863 6.73786543,12.4416693 C5.31577317,11.0656193 4.53288489,9.23292297 4.53288491,7.28134304 C4.53288491,5.33031865 5.3157732,3.49762231 6.73786543,2.12101685 C8.15012378,0.753299854 10.0256684,0 12.0203126,0 C14.0138641,0 15.8894088,0.753299854 17.3022134,2.12101685 C18.723213,3.49762234 19.5066476,5.33031865 19.5066476,7.28134304 C19.5066476,9.23292297 18.723213,11.0656193 17.3022134,12.4416693 C15.8894088,13.8093863 14.0138641,14.5626861 12.0203126,14.5626861 Z M12.0203126,1.45104663 C8.68006214,1.45104663 5.96371843,4.06648594 5.96371841,7.28134304 C5.96371841,10.4967557 8.68006211,13.112195 12.0203126,13.112195 C15.3589241,13.112195 18.0758141,10.4967557 18.0758141,7.28134304 C18.0758141,4.06648591 15.3589241,1.45104661 12.0203126,1.45104663 Z" id="Shape"></path>
                </g>
            </g>
        </g>
    </g>
</svg>